PathFileType	4	(X/Y/Z)	C:/Users/beibeiliu/ov580/test_trc\sequence.19_training_dense_left.trc
DataRate	CameraRate	NumFrames	NumMarkers	Units	OrigDataRate	OrigDataStartFrame	OrigNumFrames
120	120	22	19	mm	120	130	344
Frame#	Time	ThumbCMC			ThumbMCP			ThumbIP			ThumbTip			IndexMCP			IndexPIP			IndexTip			MiddleMCP			MiddlePIP			MiddleTip			RingMCP			RingPIP			RingTip			PinkyMCP			PinkyPIP			PinkyTip			BackHand1			BackHand2			BackHand3	
		X0	Y0	Z0	X1	Y1	Z1	X2	Y2	Z2	X3	Y3	Z3	X4	Y4	Z4	X5	Y5	Z5	X6	Y6	Z6	X7	Y7	Z7	X8	Y8	Z8	X9	Y9	Z9	X10	Y10	Z10	X11	Y11	Z11	X12	Y12	Z12	X13	Y13	Z13	X14	Y14	Z14	X15	Y15	Z15	X16	Y16	Z16	X17	Y17	Z17	X18	Y18	Z18	
129	1.075	-264.842	58.8501	38.4381	-269.101	67.8554	9.04378	-283.863	71.0319	-13.263	-291.011	63.9569	-29.248	-312.884	66.8396	0.7265	-291.82	65.6577	-18.4866	-281.483	61.0767	6.11877	-315.512	44.4009	-10.1096	-292.754	49.5385	-29.1164	-272.17	42.3985	-5.93849	-308.673	28.2314	-15.099	-285.889	33.3375	-25.9821	-269.854	33.2126	-1.91897	-303.367	9.75933	-9.51427	-283.442	22.8936	-20.8724	-270.262	29.1114	3.22974	-300.88	17.0125	37.5166	-282.207	13.3496	57.2573	-290.047	41.7082	51.807	
130	1.08333	-265.413	58.9744	37.4595	-269.1	71.6324	8.78268	-279.538	75.5596	-12.1136	-290.793	70.1332	-32.099	-309.879	73.5628	1.01958	-291.788	66.7632	-20.5023	-281.488	57.4699	7.12035	-315.57	53.9748	-9.58809	-294.874	51.8332	-29.7651	-273.283	44.124	-7.72236	-313.36	31.3712	-10.4047	-286.55	39.223	-23.424	-271.345	34.884	0.497955	-307.787	17.2724	-9.32216	-288.844	25.1732	-19.6298	-274.072	28.2229	2.34982	-308.121	21.4389	36.7526	-285.53	14.6237	55.1606	-288.712	43.1351	53.7832	
131	1.09167	-262.994	56.296	38.1258	-266.035	70.4112	11.1356	-273.746	79.7322	-7.61176	-287.716	75.6927	-28.8543	-307.58	77.1569	-2.68123	-292.915	70.666	-23.039	-279.793	54.6736	-0.588863	-316.251	57.9291	-11.4234	-294.143	52.5308	-29.6094	-274.628	41.2687	-4.5874	-314.117	36.5315	-11.7931	-289.102	35.4435	-24.7025	-273.722	31.0174	-2.70137	-312.315	22.5157	-6.48446	-291.298	23.877	-18.3796	-274.837	26.651	4.90978	-308.889	24.2367	38.4416	-290.01	19.7739	57.9857	-289.098	44.7012	53.2171	
132	1.1	-263.74	58.115	38.2253	-263.662	74.6771	11.7046	-274.428	84.3853	-5.75696	-284.695	84.803	-25.0059	-307.307	78.158	-2.66805	-294.018	68.7432	-25.2686	-276.506	55.3879	-5.60807	-315.07	60.9045	-12.7318	-294.433	50.3275	-29.206	-275.981	41.1537	-2.00075	-314.461	43.8476	-12.4095	-289.854	35.9498	-22.7245	-275.159	34.7876	-0.61954	-315.403	26.0019	-5.9068	-292.816	26.3614	-16.4583	-279.801	27.0328	6.14255	-310.972	32.7936	36.9	-290.261	21.713	60.1078	-292.496	52.7448	50.8876	
133	1.10833	-262.145	61.0148	37.5723	-261.775	74.0559	14.8116	-274.274	83.7597	-3.5237	-286.767	91.8994	-24.473	-305.862	82.2932	-2.04167	-295.834	71.5044	-26.3267	-275.463	55.7492	-9.12874	-315.153	62.7509	-11.3924	-293.565	54.8403	-29.3095	-277.982	40.3048	-4.70753	-319.047	41.237	-9.56528	-293.8	38.8962	-22.4767	-278.251	34.5892	2.69484	-319.349	25.1713	-5.83336	-297.21	23.5619	-17.5287	-282.819	28.3661	2.7313	-311.838	35.1471	41.8743	-294.619	24.4119	59.8962	-291.822	51.6245	52.4024	
134	1.11667	-261.056	57.5639	37.4026	-267.426	73.8367	12.641	-277.114	85.085	-3.79499	-285.801	92.8602	-21.3774	-306.332	83.3404	-3.60088	-291.123	75.1936	-29.1071	-276.659	56.4361	-15.4823	-313.271	67.3257	-12.3601	-296.333	53.9754	-31.0915	-276.884	45.3875	-3.265	-319.057	44.8272	-11.0155	-293.184	39.0412	-22.181	-280.945	32.1666	4.55223	-321.472	29.3977	-9.2176	-297.286	28.882	-16.7212	-283.797	30.126	4.50807	-314.823	39.8282	36.5932	-298.668	31.76	57.968	-292.419	57.6075	50.7549	
135	1.125	-259.789	57.3537	38.3316	-262.857	73.9089	13.5092	-276.334	87.1488	-4.73505	-283.781	97.1298	-22.5025	-305.842	85.4666	-8.63735	-294.565	72.9886	-29.9446	-275.849	56.3227	-15.697	-312.838	69.1261	-12.7865	-294.757	57.345	-30.7427	-280.032	42.8704	-0.529537	-315.658	51.7443	-13.3677	-292.895	37.4195	-21.6772	-281.543	36.0643	4.02171	-322.277	34.4515	-3.92707	-298.947	28.5639	-16.9956	-284.133	27.9851	3.66252	-314.196	44.2271	38.4145	-302.685	30.0036	55.42	-291.581	58.5875	49.7278	
136	1.13333	-265.085	58.2041	35.143	-265.008	76.2691	11.7626	-271.023	88.0441	-3.6315	-283.334	99.2222	-22.3938	-304.111	88.7768	-8.99916	-295.295	76.3004	-30.8914	-276.094	58.5144	-18.8369	-312.059	72.5138	-14.0837	-292.365	57.8569	-30.4099	-277.589	48.6228	-2.03375	-317.776	52.3027	-11.7	-296.783	42.4348	-22.7471	-283.465	35.6774	5.19755	-322.104	37.5992	-9.81892	-301.622	28.5158	-17.1961	-285.402	30.3915	7.67531	-312.768	46.7355	38.7764	-303.135	32.5426	56.4407	-293.185	59.2155	48.7948	
137	1.14167	-264.687	59.6202	35.5713	-261.571	76.0035	12.6071	-274.323	89.5343	-4.74547	-283.699	99.6117	-22.135	-302.198	92.0706	-4.91854	-290.108	82.0785	-31.3671	-271.545	63.5649	-17.4048	-310.921	75.2245	-10.6387	-291.329	59.5154	-30.6001	-279.855	46.6273	-2.46708	-319.33	54.3318	-11.195	-297.192	41.5571	-22.2554	-283.363	40.0197	5.86211	-321.894	41.3224	-8.44401	-300.234	32.0254	-15.3448	-286.219	32.7595	3.89064	-314.613	50.2791	38.6467	-301.306	34.4935	55.6197	-290.885	64.0635	49.0625	
138	1.15	-261.272	59.0744	35.2409	-261.539	76.3221	11.909	-272.17	94.7643	-7.24281	-280.159	102.56	-23.2429	-300.654	95.1757	-8.06062	-290.971	80.3684	-32.0322	-271.354	63.3536	-14.8682	-311.765	76.7345	-15.4076	-291.476	60.1433	-29.7379	-279.045	49.0495	-3.10981	-318.131	59.7973	-10.8927	-295.247	46.6353	-21.7333	-285.403	38.001	3.04371	-320.184	46.8606	-9.1091	-300.138	34.3793	-15.1054	-287.462	35.2822	4.42939	-318.338	55.0716	36.6039	-299.424	37.4745	56.7974	-289.768	67.6566	47.0325	
139	1.15833	-259.428	64.2369	33.2395	-260.538	81.0813	10.1844	-271.992	94.1848	-6.33675	-280.23	101.647	-20.6659	-296.726	98.7779	-9.78571	-286.763	83.0238	-32.4625	-274.033	63.8329	-18.0011	-311.769	78.3076	-17.3712	-294.649	63.2875	-31.6978	-278.7	51.1121	-5.10406	-316.579	61.5753	-13.527	-294.672	45.3522	-20.601	-284.683	43.4306	5.30685	-324.288	48.9321	-5.06965	-304.047	37.2214	-16.1649	-291.228	35.4873	8.14848	-313.185	56.3671	38.248	-303.444	43.6897	54.4874	-289.134	65.7413	47.7911	
140	1.16667	-260.922	64.1092	33.2493	-257.84	79.948	10.1769	-268.281	94.9899	-7.30483	-279.342	105.415	-25.3094	-297.806	97.3014	-10.7873	-288.285	81.2445	-33.3267	-274.752	62.2219	-17.5343	-308.289	82.1753	-13.8199	-294.629	62.4819	-31.3987	-279.798	52.6594	-2.1359	-316.097	66.2698	-13.5549	-293.278	48.7603	-20.9551	-284.971	45.9262	4.4581	-323.77	51.4573	-7.7077	-304.438	39.7427	-16.3166	-291.284	40.6763	3.83161	-313.511	59.9457	36.6268	-299.546	43.1985	56.2401	-287.315	72.8557	46.9493	
141	1.175	-258.035	63.8221	33.1103	-258.95	78.8053	9.73295	-262.8	95.4434	-7.7183	-273.871	102.613	-22.8225	-292.216	100.159	-9.32193	-287.605	86.6624	-33.2503	-270.497	63.9498	-16.648	-308.864	83.6528	-14.2063	-288.99	63.3415	-30.9566	-278.56	52.7212	-4.45358	-317.367	65.6904	-16.3234	-298.194	48.9623	-22.1896	-287.847	42.5716	1.29968	-324.842	53.5745	-11.3134	-306.568	41.7355	-18.1688	-290.094	40.4857	7.62798	-314.857	64.9934	33.8052	-303.968	48.683	54.5206	-287.815	70.1796	45.4419	
142	1.18333	-254.941	60.3414	32.4543	-256.21	76.4418	8.05788	-261.335	92.3027	-10.0078	-271.814	101.625	-25.8646	-289.845	101.62	-9.88532	-287.654	84.8726	-34.627	-274.452	63.118	-21.168	-303.447	86.4505	-17.252	-293.91	64.0791	-32.7435	-283.07	51.6402	-2.57587	-314.84	71.6691	-13.7031	-299.807	50.4984	-23.1575	-285.878	47.8505	4.19361	-325.841	56.5862	-11.0463	-305.906	45.6456	-17.5887	-292.726	38.3807	5.33059	-312.031	67.8233	35.326	-305.581	50.9791	54.6643	-286.619	70.6058	46.312	
143	1.19167	-255.704	59.5482	30.4865	-256.128	73.0499	5.62754	-258.212	88.2369	-12.1326	-268.402	99.0126	-29.0001	-284.994	101.251	-12.6087	-284.556	87.3065	-37.4266	-271.991	62.9931	-23.905	-303.935	87.228	-20.364	-293.733	63.5636	-33.8725	-280.036	52.591	-6.45122	-314.617	74.0425	-14.5849	-298.842	49.8015	-23.5064	-288.19	44.6346	-1.5786	-326.197	61.3302	-7.33431	-306.739	46.7999	-17.883	-294.593	40.6558	7.93893	-309.25	74.1154	34.0412	-304.507	53.0927	53.7796	-284.349	70.9247	43.2139	
144	1.2	-254.734	55.5053	28.2574	-249.732	72.0906	2.31891	-255.267	85.8368	-16.0676	-267.759	96.3955	-35.5377	-279.48	101.733	-14.8422	-277.633	87.688	-40.7458	-267.751	60.9615	-27.3898	-298.97	90.5893	-20.6597	-293.21	68.4559	-38.7758	-278.689	52.6826	-11.4921	-309.393	75.6188	-21.152	-299.877	55.0861	-27.7008	-289.71	45.2934	0.91302	-320.163	66.5562	-9.02334	-306.932	46.2024	-17.3576	-295.882	40.3271	2.07201	-305.177	76.2268	31.8145	-301.505	57.1907	52.9126	-279.001	74.5562	38.997	
145	1.20833	-251.278	56.5005	24.8714	-247.357	68.4192	-0.221765	-257.319	82.5277	-20.2535	-276.822	86.604	-34.3662	-272.151	100.545	-22.3571	-273.918	88.3375	-44.8407	-268.899	60.2683	-37.5597	-293.637	91.6422	-23.1616	-291.88	69.9494	-42.0579	-278.323	51.0846	-14.8421	-304.736	79.7982	-19.4943	-298.728	54.0557	-28.8817	-289.08	47.7215	-1.90179	-319.963	68.0822	-16.9176	-308.937	47.395	-20.0503	-297.585	40.6959	2.51236	-303.615	77.1549	28.8118	-300.483	61.0664	51.0943	-273.983	72.9232	37.8423	
146	1.21667	-254.663	52.7327	24.0413	-247.712	64.0227	-2.51468	-252.064	75.552	-24.1275	-277.569	79.4995	-32.7951	-267.708	98.1078	-24.799	-266.776	86.3666	-48.2075	-267.832	53.331	-37.8486	-285.263	93.5493	-26.9631	-288.314	70.0209	-45.6746	-280.073	50.5408	-21.3057	-301.737	80.1141	-26.3761	-295.607	52.1133	-30.6497	-289.714	45.6748	-7.62943	-316.478	70.4583	-17.2029	-305.406	50.4694	-23.089	-293.291	43.5156	1.201	-298.821	79.5201	25.9732	-297.39	65.481	47.5004	-273.296	75.3407	36.9998	
147	1.225	-251.164	52.0601	20.3158	-241.651	59.5365	-7.31234	-254.35	72.1116	-24.6404	-276.113	77.7098	-39.4371	-258.5	94.6712	-28.6382	-264.327	80.7334	-52.5519	-267.173	52.2156	-43.4795	-283.994	90.7071	-32.3693	-285.05	68.6345	-49.472	-279.707	48.4692	-24.8044	-300.506	80.4516	-27.0323	-293.428	53.8081	-33.3465	-288.852	46.428	-5.54968	-315.053	73.2654	-20.746	-302.789	49.6416	-22.9295	-293.541	44.7631	1.38556	-296.56	84.4042	20.7283	-291.543	65.4956	46.7865	-265.169	73.3249	31.816	
148	1.23333	-246.281	48.7342	19.8339	-239.292	57.2481	-10.1005	-247.517	67.4005	-29.1773	-267.43	73.6953	-46.7979	-256.15	90.4889	-32.8276	-264.537	76.1153	-56.6062	-270.037	47.6401	-42.9252	-275.621	87.5166	-36.6408	-281.807	61.7999	-51.0699	-280.003	46.9281	-21.493	-297.511	78.2549	-31.8449	-292.788	52.0542	-35.2447	-282.685	47.2462	-7.93496	-309.111	74.153	-22.6758	-300.586	49.7108	-24.641	-291.69	46.2901	0.87771	-289.802	86.6037	16.0561	-284.556	69.5272	44.4668	-261.688	75.773	27.1609	
149	1.24167	-245.726	48.5336	16.6711	-233.591	48.6702	-12.1192	-239.006	61.6121	-36.9383	-255.948	69.8472	-54.4134	-254.452	84.7713	-43.1454	-264.751	69.6903	-59.8641	-265.154	42.7036	-39.6881	-272.407	82.4717	-39.7977	-283.143	56.6298	-52.744	-273.71	44.11	-19.2903	-290.204	75.9393	-35.4499	-291.965	48.1614	-34.9135	-285.322	43.5877	-9.94982	-305.286	74.4557	-23.3166	-303.429	50.0354	-25.7909	-290.954	47.3446	-0.791804	-285.275	88.5712	12.8169	-283.898	73.6978	39.2146	-254.385	75.3364	22.987	
150	1.25	-243.237	49.9647	11.2949	-235.3	47.9173	-17.9679	-234.215	52.1668	-37.8943	-239.493	58.3363	-60.442	-253.253	79.6242	-44.5335	-261.23	56.4492	-61.8158	-265.555	39.0251	-37.7197	-275.183	76.9991	-45.5423	-283.126	48.736	-48.837	-274.527	40.4113	-22.3029	-287.176	71.1729	-40.3358	-289.549	44.9604	-34.7232	-280.359	44.1692	-9.49683	-305.681	71.9004	-27.9666	-298.71	47.3592	-24.6002	-286.062	45.891	-0.101324	-279.069	86.508	11.0825	-277.685	75.2663	34.4784	-251.024	76.5977	19.1702	
